<svg width="800" height="600" viewBox="0 0 800 600" fill="none" xmlns="http://www.w3.org/2000/svg">
  <rect width="800" height="600" rx="40" fill="#FFF8F1"/>
  
  <!-- Monitor -->
  <rect x="150" y="150" width="500" height="300" rx="16" fill="#FFFFFF" stroke="#F97316" stroke-width="4"/>
  <rect x="180" y="180" width="440" height="40" rx="6" fill="#F97316" opacity="0.8"/>
  <rect x="180" y="240" width="300" height="20" rx="4" fill="#FDBA74"/>
  <rect x="180" y="270" width="350" height="20" rx="4" fill="#FED7AA"/>
  <rect x="180" y="300" width="200" height="20" rx="4" fill="#F97316"/>
  <rect x="180" y="330" width="280" height="20" rx="4" fill="#FDBA74"/>
  
  <!-- Stand -->
  <rect x="370" y="450" width="60" height="80" rx="8" fill="#FED7AA"/>
  <rect x="330" y="520" width="140" height="20" rx="8" fill="#F97316"/>
  
  <!-- Floating Code Blocks -->
  <rect x="620" y="120" width="140" height="80" rx="10" fill="#F97316" opacity="0.8"/>
  <rect x="50" y="100" width="120" height="60" rx="8" fill="#FDBA74"/>
  
  <!-- Decorative Circles -->
  <circle cx="100" cy="500" r="30" fill="#F97316" opacity="0.2"/>
  <circle cx="700" cy="500" r="50" fill="#FDBA74" opacity="0.3"/>
</svg>
